<?xml version="1.0" encoding="UTF-8"?>
<svg id="Ebene_1" data-name="Ebene 1" xmlns="http://www.w3.org/2000/svg" viewBox="0 0 334.03 276.16">
  <g id="Ebene_1-2" data-name="Ebene 1">
    <path d="m96.24,276.16c-9.03,0-18.06-2.89-25.64-8.31l-52.36-37.74C6.86,221.99,0,208.63,0,194.54v-123.14C0,49.92,16.07,31.32,37.38,28.07L222.26.45h0c5.06-.72,10.11-.54,14.99.36l61.39,12.28c20.58,3.97,35.39,22.03,35.39,42.79v104.72c0,18.24-11.56,34.85-28.71,41.17l-193.92,71.68c-4.88,1.81-10.11,2.71-15.17,2.71ZM227.14,32.58L42.07,60.03c-5.42.9-9.57,5.6-9.57,11.19v123.32c0,3.61,1.81,7.04,4.69,9.21l52.36,37.74c3.07,2.17,7.04,2.71,10.47,1.44l193.92-71.68c4.51-1.63,7.4-5.96,7.4-10.65V55.88c0-5.42-3.79-10.11-9.03-11.19l-61.39-12.28c-1.26,0-2.53,0-3.79.18Z"/>
  </g>
</svg>